<?xml version="1.0" standalone="no"?> <!DOCTYPE svg PUBLIC "-//W3C//DTD SVG 1.0//EN" "http://www.w3.org/TR/2001/REC-SVG-20010904/DTD/svg10.dtd" > <svg xmlns="http://www.w3.org/2000/svg" width="100%" height="100%">
<defs >
<font id="BondoluoPeek" horiz-adv-x="935" ><font-face
    font-family="Bondoluo Peek"
    units-per-em="1000"
    panose-1="2 0 3 3 0 0 0 0 0 0"
    ascent="1060"
    descent="-282"
    alphabetic="0" />
<missing-glyph horiz-adv-x="500" d="M50 0V533H450V0H50ZM100 50H400V483H100V50Z" />
<glyph unicode=" " glyph-name="space" horiz-adv-x="300" />
<glyph unicode="!" glyph-name="exclam" horiz-adv-x="171" d="M48 87Q63 102 84 102T119 87T134 51T120 15T84 0T48 15T33 51T48 87ZM70 1061H100V154H70V1061Z" />
<glyph unicode="&quot;" glyph-name="quotedbl" horiz-adv-x="1038" />
<glyph unicode="#" glyph-name="numbersign" horiz-adv-x="1038" />
<glyph unicode="$" glyph-name="dollar" horiz-adv-x="1038" />
<glyph unicode="%" glyph-name="percent" horiz-adv-x="1038" />
<glyph unicode="&amp;" glyph-name="ampersand" horiz-adv-x="1038" />
<glyph unicode="&apos;" glyph-name="quotesingle" horiz-adv-x="1038" />
<glyph unicode="(" glyph-name="parenleft" horiz-adv-x="1038" />
<glyph unicode=")" glyph-name="parenright" horiz-adv-x="1038" />
<glyph unicode="*" glyph-name="asterisk" horiz-adv-x="1038" />
<glyph unicode="+" glyph-name="plus" horiz-adv-x="1038" />
<glyph unicode="," glyph-name="comma" horiz-adv-x="623" d="M160 76L47 -43L92 76H160Z" />
<glyph unicode="-" glyph-name="hyphen" horiz-adv-x="1038" />
<glyph unicode="." glyph-name="period" horiz-adv-x="171" d="M48 87Q63 102 84 102T119 87T134 51T120 15T84 0T48 15T33 51T48 87Z" />
<glyph unicode="/" glyph-name="slash" horiz-adv-x="1038" />
<glyph unicode="0" glyph-name="zero" horiz-adv-x="1038" />
<glyph unicode="1" glyph-name="one" horiz-adv-x="1038" />
<glyph unicode="2" glyph-name="two" horiz-adv-x="1038" />
<glyph unicode="3" glyph-name="three" horiz-adv-x="1038" />
<glyph unicode="4" glyph-name="four" horiz-adv-x="1038" />
<glyph unicode="5" glyph-name="five" horiz-adv-x="1038" />
<glyph unicode="6" glyph-name="six" horiz-adv-x="1038" />
<glyph unicode="7" glyph-name="seven" horiz-adv-x="1038" />
<glyph unicode="8" glyph-name="eight" horiz-adv-x="1038" />
<glyph unicode="9" glyph-name="nine" horiz-adv-x="1038" />
<glyph unicode=":" glyph-name="colon" horiz-adv-x="171" d="M48 393Q63 408 84 408T119 393T134 357T120 321T84 306T48 321T33 357T48 393ZM48 87Q63 102 84 102T119 87T134 51T120 15T84 0T48 15T33 51T48 87Z" />
<glyph unicode=";" glyph-name="semicolon" horiz-adv-x="171" d="M120 76L8 -43L52 76H120ZM48 393Q63 408 84 408T119 393T134 357T120 321T84 306T48 321T33 357T48 393Z" />
<glyph unicode="&lt;" glyph-name="less" horiz-adv-x="1038" />
<glyph unicode="=" glyph-name="equal" horiz-adv-x="1038" />
<glyph unicode="&gt;" glyph-name="greater" horiz-adv-x="1038" />
<glyph unicode="?" glyph-name="question" horiz-adv-x="1038" />
<glyph unicode="@" glyph-name="at" horiz-adv-x="1038" />
<glyph unicode="A" glyph-name="A" horiz-adv-x="828" d="M418 758Q503 758 579 721Q673 676 730 587Q747 562 760 531V740H790V0H760V241Q708 113 592 34H591Q490 -25 373 -14Q293 -7 222 35T104 144Q58 210 43 291T44 451Q70 574 162 658Q255 743 380 756Q398
758 418 758ZM418 728Q400 728 383 726Q268 714 182 636Q98 558 73 444Q57 372 72 297T129 161Q171 101 237 62T376 16Q483 5 575 59Q660 117 710 208T759 393V393Q757 490 705 571T566 694Q496 728 418 728Z" />
<glyph unicode="B" glyph-name="B" horiz-adv-x="829" d="M37 1004H67V531Q80 562 96 587Q153 676 248 721Q324 758 409 758Q428 758 447 756Q571 743 664 658Q756 574 783 451Q800 373 784 292T723 144Q676 78 605 36T454 -14Q337 -25 236 34H235Q119 113 67
241V0H37V1004ZM409 728Q331 728 261 694Q174 652 122 571T67 393Q66 299 116 208T252 59Q344 5 451 16Q524 23 590 62T698 161Q740 222 754 297T754 445Q729 558 644 636Q558 714 444 726Q427 728 409 728Z" />
<glyph unicode="C" glyph-name="C" horiz-adv-x="783" d="M420 758Q522 758 609 709T748 576L730 546Q684 629 602 678T420 728Q324 728 242 681T113 551T65 373T112 195T242 66T420 18Q519 18 602 68T731 201L748 171Q697 87 610 38T420 -12Q316 -12 227 39T87
179T35 372T86 566T227 706T420 758Z" />
<glyph unicode="D" glyph-name="D" horiz-adv-x="828" d="M760 1004H790V0H760V241Q708 113 592 34H591Q490 -25 373 -14Q293 -7 222 35T104 144Q58 210 43 291T44 451Q70 574 162 658Q255 743 380 756Q398 758 418 758Q503 758 579 721Q673 676 730 587Q747 562
760 531V1004ZM418 728Q400 728 383 726Q268 714 182 636Q98 558 73 445Q57 372 72 297T129 161Q171 101 237 62T376 16Q483 5 575 59Q660 117 710 208T759 393V393Q757 490 705 571T566 694Q496 728 418 728Z" />
<glyph unicode="E" glyph-name="E" horiz-adv-x="840" d="M420 758Q539 758 636 692T777 519Q798 468 803 413Q805 400 802 398T782 395Q777 395 775 395H66Q65 384 65 373Q65 329 76 286Q76 286 76 285T76 283Q107 167 202 93T420 18Q518 18 600 66T728 196L745
167Q693 84 607 36T420 -12Q287 -12 183 70T47 278Q47 279 47 280T46 282Q35 326 35 373Q35 477 86 566T227 706T420 758ZM420 728Q287 728 188 641T69 425H772Q764 474 744 519Q702 613 615 670T420 728Z" />
<glyph unicode="F" glyph-name="F" horiz-adv-x="476" d="M401 1021Q404 1021 407 1021Q424 1021 441 1018L436 988Q375 999 318 975Q263 952 226 900Q193 854 181 789Q177 770 175 749H363V719H174Q173 699 173 664V0H143V664Q143 699 144 719H34V749H145Q147
773 151 794Q165 866 202 918Q243 976 307 1003Q352 1022 401 1021Z" />
<glyph unicode="G" glyph-name="G" horiz-adv-x="828" d="M418 758Q503 758 579 721Q673 676 730 587Q747 562 760 531V741H790V1Q762 -110 675 -188T468 -282Q404 -287 341 -270T225 -214T136 -121T85 -3L115 4Q128 -53 161 -104T242 -189Q309 -237 391 -246T546
-230T678 -144T760 1V241Q708 113 592 34H591Q490 -25 373 -14Q293 -6 222 36T104 144Q58 210 43 291T44 451Q70 574 162 658Q255 743 380 756Q398 758 418 758ZM418 728Q400 728 383 726Q268 715 182 636Q98 558 73 445Q57 372 72 297T129 162Q171 101 237 62T376
16Q483 6 575 59Q660 117 710 208T759 393V394Q757 490 705 571T566 694Q496 728 418 728Z" />
<glyph unicode="H" glyph-name="H" horiz-adv-x="655" d="M37 1003H67V602Q94 646 132 680Q201 740 291 755Q317 759 343 759Q388 759 430 745Q500 721 546 666Q591 613 607 540Q617 492 617 403V0H587V403Q587 488 578 533Q563 600 523 646Q482 696 421 716Q361
736 296 726Q214 712 152 658Q92 605 67 529V0H37V532Q37 533 37 533T37 534V1003Z" />
<glyph unicode="I" glyph-name="I" horiz-adv-x="171" d="M49 988Q64 1003 85 1003T121 988T136 952T121 916T85 901T49 916T34 952T49 988ZM70 740H100V0H70V740Z" />
<glyph unicode="J" glyph-name="J" horiz-adv-x="419" d="M297 1005Q312 1020 333 1020T369 1006T384 970T369 934T333 919T297 934T282 970T297 1005ZM318 758H348V18Q348 -28 345 -52Q339 -91 323 -122Q305 -156 276 -179Q245 -202 208 -209Q152 -219 103 -191T34
-108L62 -98Q78 -141 117 -164T202 -179Q233 -174 258 -155Q282 -136 296 -108Q310 -82 315 -48Q318 -26 318 18V758Z" />
<glyph unicode="K" glyph-name="K" horiz-adv-x="623" d="M37 996H67V46L466 738L492 723L285 364L588 0L565 -19L269 336L65 -17L37 -66V-10V996Z" />
<glyph unicode="L" glyph-name="L" horiz-adv-x="105" d="M37 1000H67V0H37V1000Z" />
<glyph unicode="M" glyph-name="M" horiz-adv-x="1198" d="M343 759Q388 759 430 745Q500 721 546 666Q578 627 596 577Q625 637 674 680Q743 740 833 755Q859 759 885 759Q931 759 972 745Q1042 721 1088 666Q1133 613 1149 540Q1160 492 1160 403V0H1130V403Q1130
488 1120 533Q1105 599 1066 646Q1024 696 963 716Q903 736 838 726Q756 712 694 658Q634 605 609 528Q617 484 617 403V0H587V403Q587 488 578 533Q563 600 523 646Q482 696 421 716Q361 736 296 726Q214 712 152 658Q92 605 67 529V0H37V532Q37 533 37 533T37
534V740H67V602Q94 646 132 680Q201 740 291 755Q317 759 343 759Z" />
<glyph unicode="N" glyph-name="N" horiz-adv-x="655" d="M37 740H67V602Q94 646 132 680Q201 740 291 755Q317 759 343 759Q388 759 430 745Q500 721 546 666Q591 613 607 540Q617 492 617 403V0H587V403Q587 488 578 533Q563 600 523 646Q482 696 421 716Q361
736 296 726Q214 712 152 658Q92 605 67 529V0H37V532Q37 533 37 533T37 534V740Z" />
<glyph unicode="O" glyph-name="O" horiz-adv-x="842" d="M227 706Q316 758 420 758T613 707T753 566T805 373T754 180T614 40T421 -12T227 39T87 179T35 372T86 566T227 706ZM598 680Q517 728 421 728T242 681T113 551T65 373T112 195T242 66T420 18T598 65T727
194T775 372T728 551T598 680Z" />
<glyph unicode="P" glyph-name="P" horiz-adv-x="829" d="M67 -260H37V744H67V503Q119 631 235 710H236Q337 769 454 758Q534 750 605 708T723 600Q768 534 784 453T783 293Q756 170 664 86Q571 0 447 -12Q428 -14 409 -14Q324 -14 248 23Q153 68 96 157Q80 182
67 213V-260ZM409 16Q427 16 444 18Q558 29 644 108Q729 186 754 299Q769 371 755 446T698 582Q655 643 590 682T451 728Q344 738 251 685Q166 627 116 536T67 351V350Q69 254 121 173T261 50Q331 16 409 16Z" />
<glyph unicode="Q" glyph-name="Q" horiz-adv-x="828" d="M760 -260V213Q747 182 730 157Q673 68 579 23Q503 -14 418 -14Q398 -14 380 -12Q255 0 162 86Q70 170 44 293Q27 371 42 452T104 600Q150 666 221 708T373 758Q490 769 591 710H592Q708 631 760 503V744H790V-260H760ZM418
16Q496 16 566 50Q653 92 705 173T759 350V351Q760 445 710 536T575 685Q483 738 376 728Q303 721 237 682T129 582Q87 522 72 447T73 299Q98 186 182 108Q268 29 383 18Q400 16 418 16Z" />
<glyph unicode="R" glyph-name="R" horiz-adv-x="317" d="M257 754Q259 754 261 754Q272 754 282 752L278 723Q204 731 144 687T70 569Q68 557 67 545V0H37V546V546V738H67V646Q90 685 126 711Q184 754 257 754Z" />
<glyph unicode="S" glyph-name="S" horiz-adv-x="480" d="M227 758Q244 758 260 756Q326 746 370 697T417 581L387 580Q385 635 348 676T256 726Q218 732 182 719Q145 707 120 678Q95 649 88 612Q81 574 94 539Q109 498 152 464Q181 440 237 413H238Q309 377 331
364Q384 331 411 290Q441 246 444 192Q447 139 422 92T352 17T254 -14Q171 -17 108 39Q48 94 37 177Q34 197 35 218L65 217Q64 199 67 181Q76 109 128 62Q182 13 253 16Q298 17 336 41T395 106T414 191T386 273Q362 309 315 338Q294 351 224 386Q165 415 133 440Q84
479 66 528Q50 571 58 617Q67 663 98 698Q128 732 172 748Q198 757 227 758Z" />
<glyph unicode="T" glyph-name="T" horiz-adv-x="403" d="M186 1002H216V741H368V711H216V0H186V711H34V741H186V1002Z" />
<glyph unicode="U" glyph-name="U" horiz-adv-x="654" d="M616 0H586V138Q560 94 522 60Q453 0 363 -15Q336 -19 310 -19Q265 -18 224 -5L223 -4Q154 19 107 75Q63 127 47 201Q36 249 36 338V740H66V338Q66 252 76 207Q91 141 130 94Q171 45 233 24Q292 4 358
15Q440 28 502 83Q561 135 586 211V740H616V208Q616 208 616 208T616 206V0Z" />
<glyph unicode="V" glyph-name="V" horiz-adv-x="737" d="M62 755L358 44L675 753L702 740L371 0L357 -32L343 0L34 744L62 755Z" />
<glyph unicode="W" glyph-name="W" horiz-adv-x="1153" d="M62 755L358 44L556 488L450 744L477 755L573 525L675 753L702 740L589 487L773 44L1090 753L1118 740L787 0L772 -32L759 0L572 450L371 0L357 -32L343 0L34 744L62 755Z" />
<glyph unicode="X" glyph-name="X" horiz-adv-x="613" d="M59 758L306 405L553 758L578 740L324 379L578 17L553 0L306 353L59 0L34 17L288 379L34 740L59 758Z" />
<glyph unicode="Y" glyph-name="Y" horiz-adv-x="737" d="M62 755L358 44L675 753L702 740L371 0L259 -253H226L340 6L34 744L62 755Z" />
<glyph unicode="Z" glyph-name="Z" horiz-adv-x="672" d="M97 740H606H637L618 716L95 30H596V0H64H34L52 24L576 710H97V740Z" />
<glyph unicode="[" glyph-name="bracketleft" horiz-adv-x="1038" />
<glyph unicode="\" glyph-name="backslash" horiz-adv-x="1038" />
<glyph unicode="]" glyph-name="bracketright" horiz-adv-x="1038" />
<glyph unicode="^" glyph-name="asciicircum" horiz-adv-x="1038" />
<glyph unicode="_" glyph-name="underscore" horiz-adv-x="1038" />
<glyph unicode="`" glyph-name="grave" horiz-adv-x="1038" />
<glyph unicode="a" glyph-name="a" horiz-adv-x="828" d="M418 758Q503 758 579 721Q673 676 730 587Q747 562 760 531V740H790V0H760V241Q708 113 592 34H591Q490 -25 373 -14Q293 -7 222 35T104 144Q58 210 43 291T44 451Q70 574 162 658Q255 743 380 756Q398
758 418 758ZM418 728Q400 728 383 726Q268 714 182 636Q98 558 73 444Q57 372 72 297T129 161Q171 101 237 62T376 16Q483 5 575 59Q660 117 710 208T759 393V393Q757 490 705 571T566 694Q496 728 418 728Z" />
<glyph unicode="b" glyph-name="b" horiz-adv-x="829" d="M37 1004H67V531Q80 562 96 587Q153 676 248 721Q324 758 409 758Q428 758 447 756Q571 743 664 658Q756 574 783 451Q800 373 784 292T723 144Q676 78 605 36T454 -14Q337 -25 236 34H235Q119 113 67
241V0H37V1004ZM409 728Q331 728 261 694Q174 652 122 571T67 393Q66 299 116 208T252 59Q344 5 451 16Q524 23 590 62T698 161Q740 222 754 297T754 445Q729 558 644 636Q558 714 444 726Q427 728 409 728Z" />
<glyph unicode="c" glyph-name="c" horiz-adv-x="783" d="M420 758Q522 758 609 709T748 576L730 546Q684 629 602 678T420 728Q324 728 242 681T113 551T65 373T112 195T242 66T420 18Q519 18 602 68T731 201L748 171Q697 87 610 38T420 -12Q316 -12 227 39T87
179T35 372T86 566T227 706T420 758Z" />
<glyph unicode="d" glyph-name="d" horiz-adv-x="828" d="M760 1004H790V0H760V241Q708 113 592 34H591Q490 -25 373 -14Q293 -7 222 35T104 144Q58 210 43 291T44 451Q70 574 162 658Q255 743 380 756Q398 758 418 758Q503 758 579 721Q673 676 730 587Q747 562
760 531V1004ZM418 728Q400 728 383 726Q268 714 182 636Q98 558 73 445Q57 372 72 297T129 161Q171 101 237 62T376 16Q483 5 575 59Q660 117 710 208T759 393V393Q757 490 705 571T566 694Q496 728 418 728Z" />
<glyph unicode="e" glyph-name="e" horiz-adv-x="840" d="M420 758Q539 758 636 692T777 519Q798 468 803 413Q805 400 802 398T782 395Q777 395 775 395H66Q65 384 65 373Q65 329 76 286Q76 286 76 285T76 283Q107 167 202 93T420 18Q518 18 600 66T728 196L745
167Q693 84 607 36T420 -12Q287 -12 183 70T47 278Q47 279 47 280T46 282Q35 326 35 373Q35 477 86 566T227 706T420 758ZM420 728Q287 728 188 641T69 425H772Q764 474 744 519Q702 613 615 670T420 728Z" />
<glyph unicode="f" glyph-name="f" horiz-adv-x="476" d="M401 1021Q404 1021 407 1021Q424 1021 441 1018L436 988Q375 999 318 975Q263 952 226 900Q193 854 181 789Q177 770 175 749H363V719H174Q173 699 173 664V0H143V664Q143 699 144 719H34V749H145Q147
773 151 794Q165 866 202 918Q243 976 307 1003Q352 1022 401 1021Z" />
<glyph unicode="g" glyph-name="g" horiz-adv-x="828" d="M418 758Q503 758 579 721Q673 676 730 587Q747 562 760 531V741H790V1Q762 -110 675 -188T468 -282Q404 -287 341 -270T225 -214T136 -121T85 -3L115 4Q128 -53 161 -104T242 -189Q309 -237 391 -246T546
-230T678 -144T760 1V241Q708 113 592 34H591Q490 -25 373 -14Q293 -6 222 36T104 144Q58 210 43 291T44 451Q70 574 162 658Q255 743 380 756Q398 758 418 758ZM418 728Q400 728 383 726Q268 715 182 636Q98 558 73 445Q57 372 72 297T129 162Q171 101 237 62T376
16Q483 6 575 59Q660 117 710 208T759 393V394Q757 490 705 571T566 694Q496 728 418 728Z" />
<glyph unicode="h" glyph-name="h" horiz-adv-x="655" d="M37 1003H67V602Q94 646 132 680Q201 740 291 755Q317 759 343 759Q388 759 430 745Q500 721 546 666Q591 613 607 540Q617 492 617 403V0H587V403Q587 488 578 533Q563 600 523 646Q482 696 421 716Q361
736 296 726Q214 712 152 658Q92 605 67 529V0H37V532Q37 533 37 533T37 534V1003Z" />
<glyph unicode="i" glyph-name="i" horiz-adv-x="171" d="M49 988Q64 1003 85 1003T121 988T136 952T121 916T85 901T49 916T34 952T49 988ZM70 740H100V0H70V740Z" />
<glyph unicode="j" glyph-name="j" horiz-adv-x="419" d="M297 1005Q312 1020 333 1020T369 1006T384 970T369 934T333 919T297 934T282 970T297 1005ZM318 758H348V18Q348 -28 345 -52Q339 -91 323 -122Q305 -156 276 -179Q245 -202 208 -209Q152 -219 103 -191T34
-108L62 -98Q78 -141 117 -164T202 -179Q233 -174 258 -155Q282 -136 296 -108Q310 -82 315 -48Q318 -26 318 18V758Z" />
<glyph unicode="k" glyph-name="k" horiz-adv-x="623" d="M37 996H67V46L466 738L492 723L285 364L588 0L565 -19L269 336L65 -17L37 -66V-10V996Z" />
<glyph unicode="l" glyph-name="l" horiz-adv-x="105" d="M37 1000H67V0H37V1000Z" />
<glyph unicode="m" glyph-name="m" horiz-adv-x="1198" d="M343 759Q388 759 430 745Q500 721 546 666Q578 627 596 577Q625 637 674 680Q743 740 833 755Q859 759 885 759Q931 759 972 745Q1042 721 1088 666Q1133 613 1149 540Q1160 492 1160 403V0H1130V403Q1130
488 1120 533Q1105 599 1066 646Q1024 696 963 716Q903 736 838 726Q756 712 694 658Q634 605 609 528Q617 484 617 403V0H587V403Q587 488 578 533Q563 600 523 646Q482 696 421 716Q361 736 296 726Q214 712 152 658Q92 605 67 529V0H37V532Q37 533 37 533T37
534V740H67V602Q94 646 132 680Q201 740 291 755Q317 759 343 759Z" />
<glyph unicode="n" glyph-name="n" horiz-adv-x="655" d="M37 740H67V602Q94 646 132 680Q201 740 291 755Q317 759 343 759Q388 759 430 745Q500 721 546 666Q591 613 607 540Q617 492 617 403V0H587V403Q587 488 578 533Q563 600 523 646Q482 696 421 716Q361
736 296 726Q214 712 152 658Q92 605 67 529V0H37V532Q37 533 37 533T37 534V740Z" />
<glyph unicode="o" glyph-name="o" horiz-adv-x="842" d="M227 706Q316 758 420 758T613 707T753 566T805 373T754 180T614 40T421 -12T227 39T87 179T35 372T86 566T227 706ZM598 680Q517 728 421 728T242 681T113 551T65 373T112 195T242 66T420 18T598 65T727
194T775 372T728 551T598 680Z" />
<glyph unicode="p" glyph-name="p" horiz-adv-x="829" d="M67 -260H37V744H67V503Q119 631 235 710H236Q337 769 454 758Q534 750 605 708T723 600Q768 534 784 453T783 293Q756 170 664 86Q571 0 447 -12Q428 -14 409 -14Q324 -14 248 23Q153 68 96 157Q80 182
67 213V-260ZM409 16Q427 16 444 18Q558 29 644 108Q729 186 754 299Q769 371 755 446T698 582Q655 643 590 682T451 728Q344 738 251 685Q166 627 116 536T67 351V350Q69 254 121 173T261 50Q331 16 409 16Z" />
<glyph unicode="q" glyph-name="q" horiz-adv-x="828" d="M760 -260V213Q747 182 730 157Q673 68 579 23Q503 -14 418 -14Q398 -14 380 -12Q255 0 162 86Q70 170 44 293Q27 371 42 452T104 600Q150 666 221 708T373 758Q490 769 591 710H592Q708 631 760 503V744H790V-260H760ZM418
16Q496 16 566 50Q653 92 705 173T759 350V351Q760 445 710 536T575 685Q483 738 376 728Q303 721 237 682T129 582Q87 522 72 447T73 299Q98 186 182 108Q268 29 383 18Q400 16 418 16Z" />
<glyph unicode="r" glyph-name="r" horiz-adv-x="317" d="M257 754Q259 754 261 754Q272 754 282 752L278 723Q204 731 144 687T70 569Q68 557 67 545V0H37V546V546V738H67V646Q90 685 126 711Q184 754 257 754Z" />
<glyph unicode="s" glyph-name="s" horiz-adv-x="480" d="M227 758Q244 758 260 756Q326 746 370 697T417 581L387 580Q385 635 348 676T256 726Q218 732 182 719Q145 707 120 678Q95 649 88 612Q81 574 94 539Q109 498 152 464Q181 440 237 413H238Q309 377 331
364Q384 331 411 290Q441 246 444 192Q447 139 422 92T352 17T254 -14Q171 -17 108 39Q48 94 37 177Q34 197 35 218L65 217Q64 199 67 181Q76 109 128 62Q182 13 253 16Q298 17 336 41T395 106T414 191T386 273Q362 309 315 338Q294 351 224 386Q165 415 133 440Q84
479 66 528Q50 571 58 617Q67 663 98 698Q128 732 172 748Q198 757 227 758Z" />
<glyph unicode="t" glyph-name="t" horiz-adv-x="403" d="M186 1002H216V741H368V711H216V0H186V711H34V741H186V1002Z" />
<glyph unicode="u" glyph-name="u" horiz-adv-x="654" d="M616 0H586V138Q560 94 522 60Q453 0 363 -15Q336 -19 310 -19Q265 -18 224 -5L223 -4Q154 19 107 75Q63 127 47 201Q36 249 36 338V740H66V338Q66 252 76 207Q91 141 130 94Q171 45 233 24Q292 4 358
15Q440 28 502 83Q561 135 586 211V740H616V208Q616 208 616 208T616 206V0Z" />
<glyph unicode="v" glyph-name="v" horiz-adv-x="737" d="M62 755L358 44L675 753L702 740L371 0L357 -32L343 0L34 744L62 755Z" />
<glyph unicode="w" glyph-name="w" horiz-adv-x="1153" d="M62 755L358 44L556 488L450 744L477 755L573 525L675 753L702 740L589 487L773 44L1090 753L1118 740L787 0L772 -32L759 0L572 450L371 0L357 -32L343 0L34 744L62 755Z" />
<glyph unicode="x" glyph-name="x" horiz-adv-x="613" d="M59 758L306 405L553 758L578 740L324 379L578 17L553 0L306 353L59 0L34 17L288 379L34 740L59 758Z" />
<glyph unicode="y" glyph-name="y" horiz-adv-x="737" d="M62 755L358 44L675 753L702 740L371 0L259 -253H226L340 6L34 744L62 755Z" />
<glyph unicode="z" glyph-name="z" horiz-adv-x="672" d="M97 740H606H637L618 716L95 30H596V0H64H34L52 24L576 710H97V740Z" />
<glyph unicode="{" glyph-name="braceleft" horiz-adv-x="1038" />
<glyph unicode="|" glyph-name="bar" horiz-adv-x="1038" />
<glyph unicode="}" glyph-name="braceright" horiz-adv-x="1038" />
<glyph unicode="~" glyph-name="asciitilde" horiz-adv-x="1038" />
<glyph unicode="" glyph-name="uni007F" horiz-adv-x="1038" />
</font>
</defs>
</svg>
